<svg width="250" height="250" viewBox="0 0 250 250" fill="none" xmlns="http://www.w3.org/2000/svg">
<g clip-path="url(#clip0_2_2)">
<path d="M94.864 107.238C97.3142 107.238 99.3004 105.252 99.3004 102.801C99.3004 100.351 97.3142 98.3651 94.864 98.3651C92.4139 98.3651 90.4277 100.351 90.4277 102.801C90.4277 105.252 92.4139 107.238 94.864 107.238Z" fill="black"/>
<path d="M38.4962 142.52C40.9463 142.52 42.9325 140.534 42.9325 138.084C42.9325 135.634 40.9463 133.647 38.4962 133.647C36.046 133.647 34.0598 135.634 34.0598 138.084C34.0598 140.534 36.046 142.52 38.4962 142.52Z" fill="black"/>
<path d="M90.5321 185.683C92.9822 185.683 94.9684 183.697 94.9684 181.247C94.9684 178.797 92.9822 176.81 90.5321 176.81C88.0819 176.81 86.0957 178.797 86.0957 181.247C86.0957 183.697 88.0819 185.683 90.5321 185.683Z" fill="black"/>
<path d="M159.27 151.027C161.72 151.027 163.706 149.041 163.706 146.591C163.706 144.141 161.72 142.155 159.27 142.155C156.819 142.155 154.833 144.141 154.833 146.591C154.833 149.041 156.819 151.027 159.27 151.027Z" fill="black"/>
<path d="M181.347 90.2232C183.797 90.2232 185.783 88.237 185.783 85.7868C185.783 83.3367 183.797 81.3505 181.347 81.3505C178.897 81.3505 176.911 83.3367 176.911 85.7868C176.911 88.237 178.897 90.2232 181.347 90.2232Z" fill="black"/>
<path d="M210.94 85.7868C213.39 85.7868 215.377 83.8006 215.377 81.3504C215.377 78.9003 213.39 76.9141 210.94 76.9141C208.49 76.9141 206.504 78.9003 206.504 81.3504C206.504 83.8006 208.49 85.7868 210.94 85.7868Z" fill="black"/>
<path d="M116.367 63.8138C118.817 63.8138 120.804 61.8275 120.804 59.3774C120.804 56.9273 118.817 54.941 116.367 54.941C113.917 54.941 111.931 56.9273 111.931 59.3774C111.931 61.8275 113.917 63.8138 116.367 63.8138Z" fill="black"/>
<path d="M124.72 189.337C131.505 189.337 136.985 183.805 136.985 177.072C136.985 170.287 131.505 164.807 124.72 164.807C117.935 164.807 112.455 170.287 112.455 177.072C112.455 183.857 117.935 189.337 124.72 189.337ZM124.72 172.636C127.173 172.636 129.157 174.619 129.157 177.072C129.157 179.525 127.173 181.508 124.72 181.508C122.267 181.508 120.284 179.525 120.284 177.072C120.284 174.619 122.267 172.636 124.72 172.636Z" fill="black"/>
<path d="M69.1352 138.606C59.7928 138.606 52.1727 146.226 52.1727 155.569C52.1727 164.911 59.7928 172.531 69.1352 172.531C78.4777 172.531 86.0978 164.963 86.0978 155.569C86.0978 146.226 78.4777 138.606 69.1352 138.606ZM69.1352 164.702C64.1248 164.702 60.0015 160.579 60.0015 155.569C60.0015 150.558 64.1248 146.435 69.1352 146.435C74.1457 146.435 78.2689 150.558 78.2689 155.569C78.2689 160.579 74.1457 164.702 69.1352 164.702Z" fill="black"/>
<path d="M83.9057 89.9105C92.0999 89.9105 98.7805 83.2299 98.7805 75.0356C98.7805 66.8414 92.0999 60.1608 83.9057 60.1608C75.7115 60.1608 69.0308 66.8414 69.0308 75.0356C69.0308 83.2299 75.7115 89.9105 83.9057 89.9105ZM83.9057 67.9896C87.7679 67.9896 90.9517 71.1734 90.9517 75.0356C90.9517 78.8979 87.7679 82.0816 83.9057 82.0816C80.0434 82.0816 76.8597 78.8979 76.8597 75.0356C76.8597 71.1734 80.0434 67.9896 83.9057 67.9896Z" fill="black"/>
<path d="M63.7072 107.082C63.7072 100.297 58.227 94.8167 51.442 94.8167C44.657 94.8167 39.1768 100.297 39.1768 107.082C39.1768 113.867 44.657 119.347 51.442 119.347C58.227 119.347 63.7072 113.867 63.7072 107.082ZM51.442 111.518C48.9889 111.518 47.0056 109.535 47.0056 107.082C47.0056 104.629 48.9889 102.646 51.442 102.646C53.895 102.646 55.8784 104.629 55.8784 107.082C55.8784 109.535 53.895 111.518 51.442 111.518Z" fill="black"/>
<path d="M205.149 113.397C204.366 112.719 203.322 112.405 202.278 112.51L112.09 120.234L168.719 48.8872C170.076 47.217 169.762 44.7118 168.092 43.407C149.512 28.6365 126.234 20.5989 102.486 20.912C78.7909 21.173 55.6697 29.6282 37.3501 44.8162C19.0827 60.3174 6.45212 81.6641 1.91138 104.994C-2.68156 128.429 1.0763 152.907 12.4021 173.836C23.5191 194.922 41.6821 211.623 63.5507 220.966C76.2857 226.394 89.8557 229.108 103.374 229.108C113.186 229.108 122.998 227.647 132.445 224.776C155.305 217.887 175.295 203.273 188.708 183.7C202.122 163.972 208.489 140.015 206.506 116.059C206.402 115.015 205.932 114.076 205.149 113.397ZM100.294 122.531C99.3548 123.679 99.2504 125.349 99.9811 126.758C100.712 128.115 102.225 128.951 103.739 128.794L181.401 122.165C183.124 158.283 160.577 190.433 125.66 200.924C89.386 210.997 52.0684 195.131 34.897 162.354L34.8448 162.302C17.0994 130.255 24.4063 89.3886 52.1206 65.1713C80.3045 41.1105 119.919 39.4925 149.042 61.1002L100.294 122.531ZM130.148 217.26C87.2461 230.413 40.6382 210.58 19.3437 170.078C-2.15964 130.412 7.54817 80.2027 42.4128 50.7139C60.0538 36.1 81.8703 28.7409 103.687 28.7409C123.572 28.7409 143.457 34.8474 160.159 47.0604L154 54.8371C138.76 43.4592 119.919 37.5092 100.816 38.1355C81.244 38.7619 62.1937 46.1732 47.0579 59.1169C32.2352 72.0607 22.1621 89.8583 18.7174 109.17C15.2205 128.585 18.5608 148.731 28.0598 165.903C37.2457 183.387 52.2249 197.218 70.3357 204.838C80.983 209.327 92.4654 211.623 104.052 211.623C112.038 211.623 120.023 210.527 127.852 208.388C127.904 208.388 127.904 208.388 127.904 208.388C146.693 202.751 163.186 190.746 174.251 174.567C184.898 159.066 190.17 140.276 189.23 121.435L198.99 120.6C200.817 164.911 172.998 204.316 130.148 217.26Z" fill="black"/>
<path d="M249.982 93.7727C247.32 65.8497 233.333 39.6491 211.621 21.7993C210.786 21.1208 209.742 20.8076 208.698 20.912C207.654 21.0164 206.715 21.5383 206.036 22.3734L143.771 100.871C142.779 102.124 142.674 103.794 143.405 105.151C144.084 106.403 145.441 107.186 146.85 107.186C146.954 107.186 147.111 107.186 147.215 107.186L246.433 98.0525C247.477 97.9481 248.416 97.4784 249.095 96.6433C249.721 95.8604 250.087 94.8166 249.982 93.7727ZM189.961 59.3257C192.414 59.3257 194.397 61.309 194.397 63.762C194.397 66.2151 192.414 68.1984 189.961 68.1984C187.508 68.1984 185.525 66.2151 185.525 63.762C185.525 61.309 187.508 59.3257 189.961 59.3257ZM155.67 98.5745L178.948 69.1379C180.932 73.2089 185.107 76.0273 189.961 76.0273C196.746 76.0273 202.226 70.5471 202.226 63.762C202.226 57.9165 198.155 53.0626 192.727 51.81L198.729 44.2942C212.665 56.7683 221.433 73.2611 224.304 92.2592L155.67 98.5745ZM232.08 91.5285C229.001 70.3383 219.189 52.0187 203.583 38.1355L209.637 30.4632C227.07 46.0166 238.552 67.5721 241.684 90.6412L232.08 91.5285Z" fill="black"/>
</g>
<defs>
<clipPath id="clip0_2_2">
<rect width="250" height="250" fill="white"/>
</clipPath>
</defs>
</svg>
